<svg width="110" height="19" viewBox="0 0 110 19" fill="none" xmlns="http://www.w3.org/2000/svg">
<path d="M0 14.76V2.66C0 1.55543 0.895431 0.66 2 0.66H9.84V3.5H3.68V6.34H9.4V9.16H3.68V14.76H0Z" fill="#3E52B5"/>
<path d="M11.242 3.22V0H14.982V3.22H11.242ZM11.342 14.76V4.92H14.902V14.76H11.342Z" fill="#3E52B5"/>
<path d="M20.847 14.98C19.487 14.98 18.5004 14.64 17.887 13.96C17.2737 13.2667 16.967 12.2267 16.967 10.84V0.66H20.527V10.72C20.527 11.6533 20.9537 12.12 21.807 12.12C21.9404 12.12 22.0737 12.1133 22.207 12.1C22.3537 12.0867 22.4937 12.0667 22.627 12.04L22.587 14.76C22.0537 14.9067 21.4737 14.98 20.847 14.98Z" fill="#3E52B5"/>
<path d="M29.1825 14.98C27.9825 14.98 26.9425 14.7733 26.0625 14.36C25.1958 13.9333 24.5292 13.3333 24.0625 12.56C23.5958 11.7867 23.3625 10.8733 23.3625 9.82C23.3625 8.82 23.5825 7.93333 24.0225 7.16C24.4758 6.38667 25.0892 5.78667 25.8625 5.36C26.6492 4.92 27.5425 4.7 28.5425 4.7C29.5292 4.7 30.3825 4.90667 31.1025 5.32C31.8358 5.73333 32.3958 6.32667 32.7825 7.1C33.1825 7.86 33.3825 8.75333 33.3825 9.78V10.56H26.7625C26.8825 11.2 27.1492 11.66 27.5625 11.94C27.9758 12.22 28.5492 12.36 29.2825 12.36C29.7892 12.36 30.3158 12.2867 30.8625 12.14C31.4225 11.98 31.9158 11.7533 32.3425 11.46L33.2225 13.8C32.7158 14.16 32.0958 14.4467 31.3625 14.66C30.6292 14.8733 29.9025 14.98 29.1825 14.98ZM28.7025 7C28.1692 7 27.7292 7.16 27.3825 7.48C27.0492 7.8 26.8358 8.26667 26.7425 8.88H30.4625C30.4225 8.25333 30.2492 7.78667 29.9425 7.48C29.6492 7.16 29.2358 7 28.7025 7Z" fill="#3E52B5"/>
<path d="M35.1562 14.76V0.66H38.8363V6.1H44.6562V0.66H48.3162V14.76H44.6562V9.12H38.8363V14.76H35.1562Z" fill="#3E52B5"/>
<path d="M55.6189 14.98C54.5256 14.98 53.5722 14.7733 52.7589 14.36C51.9456 13.9467 51.3122 13.3533 50.8589 12.58C50.4056 11.8067 50.1789 10.8933 50.1789 9.84C50.1789 8.77333 50.4056 7.86 50.8589 7.1C51.3122 6.32667 51.9456 5.73333 52.7589 5.32C53.5722 4.90667 54.5256 4.7 55.6189 4.7C56.7122 4.7 57.6656 4.90667 58.4789 5.32C59.2922 5.73333 59.9189 6.32667 60.3589 7.1C60.8122 7.86 61.0389 8.77333 61.0389 9.84C61.0389 10.8933 60.8122 11.8067 60.3589 12.58C59.9189 13.3533 59.2922 13.9467 58.4789 14.36C57.6656 14.7733 56.7122 14.98 55.6189 14.98ZM55.6189 12.36C56.1522 12.36 56.5922 12.16 56.9389 11.76C57.2856 11.36 57.4589 10.72 57.4589 9.84C57.4589 8.94667 57.2856 8.30667 56.9389 7.92C56.5922 7.52 56.1522 7.32 55.6189 7.32C55.0722 7.32 54.6256 7.52 54.2789 7.92C53.9322 8.30667 53.7589 8.94667 53.7589 9.84C53.7589 10.72 53.9322 11.36 54.2789 11.76C54.6256 12.16 55.0722 12.36 55.6189 12.36Z" fill="#3E52B5"/>
<path d="M66.5902 14.98C65.6835 14.98 64.8435 14.8867 64.0702 14.7C63.3102 14.5133 62.6635 14.2533 62.1302 13.92L62.9502 11.62C63.4435 11.9 64.0168 12.1333 64.6702 12.32C65.3235 12.4933 65.9702 12.58 66.6102 12.58C67.1035 12.58 67.4568 12.5133 67.6702 12.38C67.8835 12.2333 67.9902 12.0467 67.9902 11.82C67.9902 11.62 67.9168 11.4733 67.7702 11.38C67.6368 11.2733 67.4435 11.1933 67.1902 11.14L64.9702 10.78C64.1435 10.6467 63.5035 10.3467 63.0502 9.88C62.5968 9.41333 62.3702 8.80667 62.3702 8.06C62.3702 7.36667 62.5635 6.77333 62.9502 6.28C63.3368 5.77333 63.8768 5.38667 64.5702 5.12C65.2635 4.84 66.0568 4.7 66.9502 4.7C67.6568 4.7 68.3568 4.78667 69.0502 4.96C69.7435 5.12 70.3502 5.38667 70.8702 5.76L69.9902 8.02C69.6035 7.75333 69.1235 7.53333 68.5502 7.36C67.9768 7.17333 67.4635 7.08 67.0102 7.08C66.4635 7.08 66.0768 7.16 65.8502 7.32C65.6235 7.46667 65.5102 7.64667 65.5102 7.86C65.5102 8.22 65.7568 8.44 66.2502 8.52L68.4702 8.9C69.3235 9.03333 69.9768 9.32667 70.4302 9.78C70.8968 10.22 71.1302 10.82 71.1302 11.58C71.1302 12.66 70.7168 13.5 69.8902 14.1C69.0635 14.6867 67.9635 14.98 66.5902 14.98Z" fill="#3E52B5"/>
<path d="M77.6544 14.98C76.161 14.98 75.0544 14.6333 74.3344 13.94C73.6144 13.2467 73.2544 12.2 73.2544 10.8V7.54H71.4144V4.92H73.2544V2.06H76.8144V4.92H79.6144V7.54H76.8144V10.68C76.8144 11.64 77.301 12.12 78.2744 12.12C78.4344 12.12 78.6077 12.1067 78.7944 12.08C78.9944 12.04 79.2144 11.9867 79.4544 11.92L79.9344 14.48C79.6277 14.64 79.2677 14.76 78.8544 14.84C78.441 14.9333 78.041 14.98 77.6544 14.98Z" fill="#3E52B5"/>
<path d="M80.91 3.22V0H84.65V3.22H80.91ZM81.01 14.76V4.92H84.57V14.76H81.01Z" fill="#3E52B5"/>
<path d="M86.635 14.76V4.92H90.095V6.26C90.4417 5.75333 90.8883 5.36667 91.435 5.1C91.9817 4.83333 92.595 4.7 93.275 4.7C94.4483 4.7 95.315 5.04667 95.875 5.74C96.4483 6.43333 96.735 7.5 96.735 8.94V14.76H93.175V9.08C93.175 8.48 93.0683 8.05333 92.855 7.8C92.655 7.54667 92.355 7.42 91.955 7.42C91.4217 7.42 90.995 7.59333 90.675 7.94C90.355 8.27333 90.195 8.72667 90.195 9.3V14.76H86.635Z" fill="#3E52B5"/>
<path d="M103.644 18.58C102.657 18.58 101.731 18.4867 100.864 18.3C100.011 18.1133 99.2772 17.8067 98.6639 17.38L99.5839 14.98C100.091 15.2867 100.691 15.5267 101.384 15.7C102.091 15.8733 102.731 15.96 103.304 15.96C104.117 15.96 104.724 15.7867 105.124 15.44C105.537 15.1067 105.744 14.58 105.744 13.86V12.94C105.464 13.42 105.044 13.8 104.484 14.08C103.924 14.36 103.324 14.5 102.684 14.5C101.804 14.5 101.037 14.3 100.384 13.9C99.7306 13.4867 99.2172 12.9133 98.8439 12.18C98.4839 11.4467 98.3039 10.5867 98.3039 9.6C98.3039 8.61333 98.4839 7.75333 98.8439 7.02C99.2172 6.28667 99.7306 5.72 100.384 5.32C101.037 4.90667 101.804 4.7 102.684 4.7C103.351 4.7 103.957 4.84667 104.504 5.14C105.064 5.42 105.471 5.79333 105.724 6.26V4.92H109.204V13.44C109.204 15.16 108.724 16.4467 107.764 17.3C106.804 18.1533 105.431 18.58 103.644 18.58ZM103.784 11.88C104.371 11.88 104.837 11.68 105.184 11.28C105.531 10.88 105.704 10.32 105.704 9.6C105.704 8.88 105.531 8.32 105.184 7.92C104.837 7.52 104.371 7.32 103.784 7.32C103.211 7.32 102.751 7.52 102.404 7.92C102.057 8.32 101.884 8.88 101.884 9.6C101.884 10.32 102.057 10.88 102.404 11.28C102.751 11.68 103.211 11.88 103.784 11.88Z" fill="#3E52B5"/>
</svg>
